<?xml version="1.0" encoding="UTF-8" standalone="no"?>
<svg
   xmlns:dc="http://purl.org/dc/elements/1.1/"
   xmlns:cc="http://creativecommons.org/ns#"
   xmlns:rdf="http://www.w3.org/1999/02/22-rdf-syntax-ns#"
   xmlns:svg="http://www.w3.org/2000/svg"
   xmlns="http://www.w3.org/2000/svg"
   viewBox="0 0 64 64"
   version="1.1"
   id="svg3605"
   height="64"
   width="64">
  <defs
     id="defs3607" />
  <metadata
     id="metadata3610">
    <rdf:RDF>
      <cc:Work
         rdf:about="">
        <dc:format>image/svg+xml</dc:format>
        <dc:type
           rdf:resource="http://purl.org/dc/dcmitype/StillImage" />
        <dc:title></dc:title>
      </cc:Work>
    </rdf:RDF>
  </metadata>
  <g
     id="layer1">
    <g
       id="g3570"
       transform="matrix(2.3695174,0,0,2.3695174,-1790.754,-55.848948)">
      <g
         transform="matrix(1.0327294,0,0,1.0327294,-19.368577,-0.85423619)"
         id="g3489">
        <path
           stroke-miterlimit="10"
           d="m 763.3,34.2 c -2.1,0 -3.8,-1.7 -3.8,-3.8 0,-2.1 1.7,-3.8 3.8,-3.8 2.1,0 3.8,1.7 3.8,3.8 0,2.1 -1.7,3.8 -3.8,3.8 z"
           id="path3491"
           style="fill:none;stroke:#bcc0c3;stroke-linecap:round;stroke-miterlimit:10" />
        <path
           stroke-miterlimit="10"
           d="m 756.9,43.1 4.8,-5.7 c 0.9,-1 2.4,-1 3.3,0 l 4.8,5.7 c 1.2,1.4 0.2,3.6 -1.7,3.6 l -9.6,0 c -1.8,-0.1 -2.8,-2.2 -1.6,-3.6 z"
           id="path3493"
           style="fill:none;stroke:#bcc0c3;stroke-linecap:round;stroke-miterlimit:10" />
      </g>
    </g>
  </g>
</svg>
