<?xml version="1.0" encoding="UTF-8" standalone="no"?>
<svg
   xmlns:dc="http://purl.org/dc/elements/1.1/"
   xmlns:cc="http://creativecommons.org/ns#"
   xmlns:rdf="http://www.w3.org/1999/02/22-rdf-syntax-ns#"
   xmlns:svg="http://www.w3.org/2000/svg"
   xmlns="http://www.w3.org/2000/svg"
   width="64"
   height="64"
   id="svg3605"
   version="1.1"
   viewBox="0 0 64 64">
  <defs
     id="defs3607" />
  <metadata
     id="metadata3610">
    <rdf:RDF>
      <cc:Work
         rdf:about="">
        <dc:format>image/svg+xml</dc:format>
        <dc:type
           rdf:resource="http://purl.org/dc/dcmitype/StillImage" />
        <dc:title></dc:title>
      </cc:Work>
    </rdf:RDF>
  </metadata>
  <g
     id="layer1"
     style="display:none">
    <g
       transform="matrix(2.3695174,0,0,2.3695174,-1790.754,-55.848948)"
       id="g3570">
      <g
         id="g3489"
         transform="matrix(1.0327294,0,0,1.0327294,-19.368577,-0.85423619)">
        <path
           style="fill:none;stroke:#bcc0c3;stroke-linecap:round;stroke-miterlimit:10"
           id="path3491"
           d="m 763.3,34.2 c -2.1,0 -3.8,-1.7 -3.8,-3.8 0,-2.1 1.7,-3.8 3.8,-3.8 2.1,0 3.8,1.7 3.8,3.8 0,2.1 -1.7,3.8 -3.8,3.8 z"
           stroke-miterlimit="10" />
        <path
           style="fill:none;stroke:#bcc0c3;stroke-linecap:round;stroke-miterlimit:10"
           id="path3493"
           d="m 756.9,43.1 4.8,-5.7 c 0.9,-1 2.4,-1 3.3,0 l 4.8,5.7 c 1.2,1.4 0.2,3.6 -1.7,3.6 l -9.6,0 c -1.8,-0.1 -2.8,-2.2 -1.6,-3.6 z"
           stroke-miterlimit="10" />
      </g>
    </g>
  </g>
  <g
     id="layer3">
    <g
       style="display:inline"
       transform="matrix(2.4545455,0,0,2.4545455,-2060.4273,-58.386365)"
       id="g3501">
      <g
         id="g3503">
        <path
           style="fill:none;stroke:#bcc0c3;stroke-linecap:round;stroke-miterlimit:10"
           stroke-miterlimit="10"
           d="m 848.7,31.9 0,-1.6 c 0,-1.9 1.5,-3.4 3.4,-3.4 1.9,0 3.4,1.5 3.4,3.4 l 0,1.6"
           id="path3505" />
        <path
           style="fill:none;stroke:#bcc0c3;stroke-linecap:round;stroke-miterlimit:10"
           stroke-miterlimit="10"
           d="m 847.1,34.6 10,0 c 1.1,0 2,0.9 2,2 l 0,8 c 0,1.1 -0.9,2 -2,2 l -10,0 c -1.1,0 -2,-0.9 -2,-2 l 0,-8 c 0,-1.1 0.9,-2 2,-2 z"
           id="path3507" />
      </g>
      <line
         style="fill:none;stroke:#bcc0c3;stroke-linecap:round;stroke-miterlimit:10"
         stroke-miterlimit="10"
         x1="852.09998"
         y1="42.099998"
         x2="852.09998"
         y2="39.099998"
         id="line3509" />
    </g>
  </g>
</svg>
